<svg width="69" height="69" viewBox="0 0 69 69" fill="none" xmlns="http://www.w3.org/2000/svg">
<g filter="url(#filter0_d)">
<path fill-rule="evenodd" clip-rule="evenodd" d="M0.751709 55.6556V58.136H3.30038C4.36015 57.3846 3.95848 57.2495 4.77209 56.222C5.3199 55.5301 5.78855 55.047 6.41066 54.5357C9.1829 52.2565 13.7455 52.1793 16.5462 54.4565C19.0664 56.5057 18.5493 57.203 19.8438 58.136H21.3662C22.677 56.6285 23.037 55.6676 20.4739 53.091C19.0202 51.6297 17.8899 50.6906 15.7016 49.9583C16.0334 49.5322 21.198 46.5564 19.3138 40.3604C18.356 37.2103 15.4404 34.6018 11.3095 34.7021C4.39709 34.8702 0.159237 43.5956 6.42948 49.1275C6.87322 49.5191 6.90462 49.3977 7.38233 49.9022C2.69261 51.7977 2.32776 53.8903 0.751709 55.6556ZM10.3539 38.5298C4.61403 40.3478 7.11844 48.8922 12.9397 47.1381C14.881 46.5531 16.6013 44.1917 15.9203 41.7047C15.3428 39.5956 13.128 37.6512 10.3539 38.5298Z" fill="#FEFEFE"/>
<path fill-rule="evenodd" clip-rule="evenodd" d="M37.9424 58.136H39.5C40.7841 56.9593 42.3887 52.8244 47.6282 52.7895C49.6441 52.7761 51.5048 53.5019 52.8558 54.469C54.4319 55.5978 54.5134 56.3143 55.2266 57.2373C55.541 57.6444 55.743 57.7786 56.0514 58.136H58.7005V55.931C57.5612 54.4177 57.3298 53.4488 55.851 52.2346C54.5195 51.1413 53.7442 50.8411 51.9865 49.9013C53.5518 48.2567 57.2427 46.0446 55.5664 40.4347C54.6328 37.3098 51.6781 34.6265 47.6224 34.6978C41.6538 34.8029 37.8877 40.9481 40.4138 46.2804C40.7658 47.0235 41.2623 47.7258 41.7743 48.2778C42.1887 48.7245 42.2954 48.7632 42.7335 49.1396C43.4851 49.7857 43.197 50.2107 43.3967 49.7664C43.4158 49.7239 43.4815 49.8556 43.5229 49.9013C41.3618 51.1366 40.2563 51.4774 38.9064 53.0287C37.5548 54.5817 35.8755 56.2759 37.9424 58.136ZM46.7426 38.433C41.0674 39.8303 42.8079 48.5105 48.8204 47.2199C54.4992 46.0009 52.6306 36.9832 46.7426 38.433Z" fill="#FEFEFE"/>
<path fill-rule="evenodd" clip-rule="evenodd" d="M25.5444 15.3219C25.4913 15.3711 25.4032 15.3626 25.3724 15.4554C25.3308 15.5813 20.8816 17.5961 20.1727 19.4156C19.6519 20.752 20.4213 22.0742 21.857 22.0035C23.5065 21.9222 25.8769 17.0667 31.9675 18.733C33.1764 19.0636 34.3054 19.6792 35.0152 20.2987C35.9233 21.0912 36.244 22.1176 38.0966 21.9019C40.3751 20.3926 39.045 19.2424 37.8189 18.0128C36.3666 16.5566 35.3764 16.5675 33.8044 15.4698C36.1229 13.4634 38.7164 11.1544 37.5445 6.45715C35.5575 -1.50734 24.2828 -1.6758 21.8939 5.9282C20.5754 10.1242 22.9242 14.1677 25.5444 15.3219ZM28.9087 4.0391C22.6546 5.31486 24.9114 14.2532 30.8413 12.8182C36.3435 11.4868 34.4321 2.91248 28.9087 4.0391Z" fill="#FEFEFE"/>
<path fill-rule="evenodd" clip-rule="evenodd" d="M47.7715 29.3146C47.7715 30.4371 47.5034 31.5916 48.2232 32.3215C48.8321 32.939 50.076 33.0715 50.7561 32.4544C51.841 31.4698 51.3567 27.1821 51.082 25.6149C50.0824 19.913 44.6017 10.4932 41.9184 13.5886C41.1792 14.4412 41.4623 15.3334 42.0937 16.0425C45.2538 19.5913 47.7715 23.2885 47.7715 29.3146Z" fill="#FEFEFE"/>
<path fill-rule="evenodd" clip-rule="evenodd" d="M7.94478 28.8C7.93855 31.8367 8.31233 33.8258 11.4041 32.2934C11.7814 27.0088 11.6345 22.0392 15.9901 17.5211C16.8411 16.6383 18.174 15.7527 17.6379 14.0099C15.6762 9.69857 7.96237 19.9114 7.94478 28.8Z" fill="#FEFEFE"/>
<path fill-rule="evenodd" clip-rule="evenodd" d="M20.8334 46.9566L20.789 48.7439C24.3361 51.3525 31.1128 51.4548 35.5291 50.1751C37.5091 49.6014 38.8178 49.5029 38.6049 46.9701C36.8529 45.5287 37.1157 45.8996 34.8105 46.6086C31.6542 47.5794 28.0187 47.5579 24.8233 46.6744C22.2009 45.9493 22.9474 45.5766 20.8334 46.9566Z" fill="#FEFEFE"/>
</g>
<defs>
<filter id="filter0_d" x="0.751709" y="0.351562" width="67.9488" height="67.7844" filterUnits="userSpaceOnUse" color-interpolation-filters="sRGB">
<feFlood flood-opacity="0" result="BackgroundImageFix"/>
<feColorMatrix in="SourceAlpha" type="matrix" values="0 0 0 0 0 0 0 0 0 0 0 0 0 0 0 0 0 0 127 0"/>
<feOffset dx="5" dy="5"/>
<feGaussianBlur stdDeviation="2.5"/>
<feColorMatrix type="matrix" values="0 0 0 0 0 0 0 0 0 0 0 0 0 0 0 0 0 0 0.25 0"/>
<feBlend mode="normal" in2="BackgroundImageFix" result="effect1_dropShadow"/>
<feBlend mode="normal" in="SourceGraphic" in2="effect1_dropShadow" result="shape"/>
</filter>
</defs>
</svg>
