<svg width="67" height="68" viewBox="0 0 67 68" fill="none" xmlns="http://www.w3.org/2000/svg">
<g filter="url(#filter0_d)">
<path fill-rule="evenodd" clip-rule="evenodd" d="M21.8313 6.72686C23.0792 6.94523 24.4108 8.5178 24.9749 9.53882C25.7973 11.028 26.1813 12.5871 26.1257 14.5736C26.0281 18.0785 24.4704 21.3844 22.8928 23.6156C21.2693 25.912 18.9742 28.207 16.4179 29.4606C14.0905 30.6019 11.6964 31.4563 8.9033 31.0396C7.88616 30.8877 7.36459 30.5318 6.54638 30.2951L6.62786 23.4271C6.1362 24.0839 6.35842 40.6902 6.36613 43.7331C6.37655 47.9397 4.52739 45.2121 2.06844 46.4894C0.511059 47.2981 -0.187109 49.4484 1.16958 51.0786C2.28226 52.4155 4.98602 52.0604 7.0923 52.0604L48.6046 52.0614C53.0203 52.0799 53.1663 48.3449 51.1771 46.7378C49.3159 45.2336 46.5181 47.5236 46.4985 44.5159C46.4836 42.2687 46.6693 35.3282 46.4537 34.0871C43.0626 33.3524 42.2944 32.9767 40.0557 31.2756C36.3733 28.4777 35.0961 22.0551 37.1596 17.784C38.1635 15.7066 38.7059 15.2635 40.1041 13.8545C40.4912 13.4646 40.9973 13.2351 41.4082 12.8373L39.7753 11.2051C37.071 8.47683 32.0348 6.41181 27.9831 6.14421C26.7952 6.06579 22.5274 6.04253 21.8313 6.72686ZM27.1519 43.9284C26.1815 44.2998 26.2431 45.6137 27.0982 46.0409C27.5077 46.2453 29.8535 46.249 30.3657 46.1079C31.3373 45.8402 31.4316 44.354 30.49 43.9441C30.0213 43.74 27.6052 43.7548 27.1519 43.9284ZM10.6338 43.9756C9.44205 44.6069 9.73302 46.1251 11.2375 46.1697C12.95 46.2204 23.4172 46.2368 23.8035 46.043C24.7717 45.5572 24.7686 43.9403 23.1866 43.8343C21.72 43.7358 10.9982 43.7822 10.6338 43.9756Z" fill="#FEFEFE"/>
<path fill-rule="evenodd" clip-rule="evenodd" d="M6.62786 23.4271L6.54639 30.295C7.36459 30.5319 7.88602 30.8875 8.9033 31.0393C11.6964 31.4562 14.0904 30.6019 16.4179 29.4606C18.9743 28.207 21.2691 25.9119 22.8928 23.6156C24.4704 21.3845 26.0281 18.0785 26.1258 14.5735C26.1812 12.5871 25.7973 11.0279 24.9749 9.53874C24.4108 8.51758 23.0792 6.94502 21.8313 6.72678C20.4023 6.61563 17.0291 8.19239 15.9953 8.81668C13.3055 10.4408 11.4926 12.1629 9.83207 14.5872C8.44913 16.6062 6.40037 21.256 6.62786 23.4271Z" fill="#EBECEC"/>
<path fill-rule="evenodd" clip-rule="evenodd" d="M46.6241 13.4619C41.496 14.2165 37.9316 18.4969 38.556 23.6643C39.1275 28.3954 43.379 32.2944 48.743 31.6925C53.4024 31.1695 57.4313 26.8959 56.7973 21.5327C56.6401 20.2023 56.2789 19.1353 55.6903 18.1197C53.8736 14.9832 50.3822 12.909 46.6241 13.4619ZM47.3228 16.9948C46.1955 17.3665 46.5031 18.6588 46.5031 20.0135C46.5035 22.191 46.7937 21.8366 45.6309 23.0048C44.9954 23.6432 44.2616 24.2805 43.672 24.9321C42.829 25.8631 43.7229 27.3349 45.0353 26.8234C45.3133 26.715 48.6083 23.4915 48.7864 22.9216C48.9533 22.3875 48.8608 19.851 48.8642 19.1055C48.87 17.9413 48.7266 16.5322 47.3228 16.9948Z" fill="#FEFEFE"/>
<path fill-rule="evenodd" clip-rule="evenodd" d="M31.9906 54.4355L22.0517 54.4238C22.5241 56.3366 24.6649 57.9841 27.0693 57.966C29.4738 57.9478 31.4902 56.264 31.9906 54.4355Z" fill="#FEFEFE"/>
<path fill-rule="evenodd" clip-rule="evenodd" d="M22.8924 3.97937C25.1429 3.77466 26.5026 3.69961 28.7962 3.84267C28.7958 1.73586 27.9042 0.1345 25.7743 0.182637C23.4957 0.234154 22.8924 2.01874 22.8924 3.97937Z" fill="#FEFEFE"/>
</g>
<defs>
<filter id="filter0_d" x="0.447021" y="0.18158" width="66.4163" height="67.7845" filterUnits="userSpaceOnUse" color-interpolation-filters="sRGB">
<feFlood flood-opacity="0" result="BackgroundImageFix"/>
<feColorMatrix in="SourceAlpha" type="matrix" values="0 0 0 0 0 0 0 0 0 0 0 0 0 0 0 0 0 0 127 0"/>
<feOffset dx="5" dy="5"/>
<feGaussianBlur stdDeviation="2.5"/>
<feColorMatrix type="matrix" values="0 0 0 0 0 0 0 0 0 0 0 0 0 0 0 0 0 0 0.25 0"/>
<feBlend mode="normal" in2="BackgroundImageFix" result="effect1_dropShadow"/>
<feBlend mode="normal" in="SourceGraphic" in2="effect1_dropShadow" result="shape"/>
</filter>
</defs>
</svg>
