<svg width="68" height="69" viewBox="0 0 68 69" fill="none" xmlns="http://www.w3.org/2000/svg">
<g filter="url(#filter0_d)">
<path fill-rule="evenodd" clip-rule="evenodd" d="M4.79146 49.6219V21.0616C6.71394 20.8417 49.2842 20.862 49.9134 21.0775V25.4574L54.2095 26.9582C54.2095 22.3502 54.1536 20.3766 54.1536 15.7876C54.1536 13.2052 54.4998 11.6895 53.0936 10.0559C52.2111 9.0308 49.9515 7.99734 48.0667 8.75644C47.6715 10.2952 48.1267 11.3846 47.1977 12.8193C46.6108 13.7253 45.5027 14.594 43.9612 14.6387C42.324 14.6862 41.1539 13.8372 40.5568 12.9838C39.4956 11.467 39.979 10.5875 39.6877 8.80877C39.426 8.37108 34.5186 8.55565 33.7679 8.55565C31.6592 8.55565 29.5504 8.55565 27.4417 8.55565C25.489 8.55565 15.9928 8.29942 15.0291 8.75469C14.6939 10.2133 15.2117 12.222 13.4123 13.7109C11.4526 15.3325 8.09701 14.8534 7.07162 12.0318C6.57415 10.6627 6.90598 10.3376 6.74846 9.10611C6.67105 8.50143 6.29957 8.49818 5.65729 8.51819C3.2257 8.59459 1.69391 9.04959 0.634818 11.7091C0.32099 12.4972 0.495293 20.2065 0.495293 21.4062V47.6266C0.495293 48.2688 0.485685 48.8234 0.495293 49.3171V49.6269H0.504359C0.557408 50.9271 0.805199 51.8025 1.8609 52.8183C3.37632 54.2768 4.76723 53.9486 7.29112 53.9486C14.6698 53.9578 27.2935 53.9145 34.6612 53.9145C34.1558 52.1842 33.8591 51.1039 33.6683 49.6219H4.79146ZM54.7525 40.7262C55.7544 40.8327 55.6734 40.1347 55.45 38.6159C54.1187 29.5667 42.1978 26.1388 36.4015 33.667C34.123 36.6267 34.1375 38.7172 34.1406 43.1709C34.1407 43.454 34.1116 44.3284 34.1677 44.5464C34.2637 44.9207 34.7412 45.1028 35.0492 44.7319C35.5408 44.1398 34.5712 39.8924 35.8545 36.6776C36.8794 34.1101 39.0633 31.9108 41.9021 31.0184C47.4975 29.2594 53.1622 32.7759 54.3236 38.2338C54.5029 39.076 54.4146 40.2221 54.7525 40.7262ZM40.3339 33.498C41.2061 34.0858 41.6492 32.7977 44.3114 32.625C48.6212 32.3457 52.4826 35.6129 52.5064 40.4213C52.5245 44.065 52.5513 46.9439 51.8254 50.3927C51.5262 51.8141 51.0822 53.1937 50.5934 54.4547C50.3509 55.0799 49.9756 55.7306 49.7698 56.2978C49.4972 57.0488 50.3051 57.6488 50.8536 56.4493C51.9993 53.9437 52.8618 51.2298 53.2632 48.161C53.5736 45.7866 53.7918 40.2985 53.2477 38.0971C52.0061 33.0721 46.5626 30.3102 41.7207 32.1648C40.6004 32.5938 40.1848 32.7404 40.3339 33.498ZM36.4128 54.4899C38.0706 55.0794 39.968 51.184 40.4368 49.717C42.2614 44.0074 40.2536 40.0567 42.1745 37.9113C43.9012 35.983 46.9996 36.4184 48.0947 38.7616C48.5962 39.835 48.0773 42.0202 48.6341 42.7779C49.7197 42.8825 49.4424 42.0944 49.4421 41.1355C49.4419 40.2416 49.485 39.6265 49.2253 38.8493C47.8053 34.6001 42.005 34.6622 40.525 38.7035C39.6964 40.9662 41.5504 48.8302 37.3516 53.0366C37.0292 53.3595 37.0138 53.3414 36.6679 53.5726C36.2398 53.8587 36.2339 54.0028 36.4128 54.4899ZM56.5852 40.6267C56.5847 42.8007 56.6361 44.8972 56.4569 47.0514C56.4069 47.6537 56.0223 49.4177 56.328 49.7587C57.9119 51.6505 57.6172 41.4185 57.6172 40.7283C57.6172 35.262 54.7499 30.7515 50.2978 28.7115C48.9805 28.108 46.7297 27.3918 44.9878 27.4852C44.4643 27.5134 44.1195 27.8794 44.4505 28.3256C44.665 28.6147 46.6894 28.5081 48.5565 29.124C53.2437 30.6701 56.5854 35.0371 56.5852 40.6267ZM44.0868 33.6708C41.535 34.0079 40.0889 35.321 39.1003 36.9722C37.0293 40.4314 39.5807 46.4198 36.5317 50.8945C35.9177 51.7957 35.8081 51.5856 35.5055 51.9128C35.0656 52.3888 35.5188 53.0282 36.1824 52.6906C36.889 52.331 37.6385 51.148 38.0084 50.3343C39.9874 45.981 38.8779 42.445 39.3182 39.3249C39.4902 38.1067 40.1134 37.1926 40.6755 36.5131C41.7266 35.2431 44.3123 34.0674 46.6895 34.9626C47.1008 35.1176 47.8347 35.6107 48.1928 35.3846C49.4087 34.6168 46.2611 33.3836 44.0868 33.6708ZM44.0844 37.8483C43.1722 38.1306 42.3878 38.9378 42.2982 40.046C42.2388 40.7835 43.0177 41.0815 43.2752 40.4087C43.5406 39.715 43.3198 39.5371 43.9325 39.0511C44.8991 38.2842 46.1994 38.9972 46.3633 40.0588C46.4968 40.9236 46.4043 43.1073 46.3947 44.0868C46.3034 53.5135 41.8127 56.9799 41.6864 57.475C41.5194 58.1299 42.2054 58.328 42.672 57.8458C44.758 55.6909 45.9566 52.8631 46.7588 49.8229C47.3738 47.4923 47.4056 45.0055 47.4056 42.4584C47.4056 41.1796 47.5898 39.7683 46.9809 38.8484C46.4741 38.083 45.4139 37.4369 44.0844 37.8483ZM51.495 44.1885C51.495 42.2111 51.7044 39.4975 51.0292 37.8546C50.8 37.2974 50.1589 36.0706 49.778 35.8384C49.3052 35.5501 48.8022 35.8313 48.9853 36.4115C49.0701 36.68 50.3125 37.8205 50.4451 39.8106C50.7938 45.0416 50.1628 51.862 47.5081 56.2711C46.6289 57.7314 47.725 58.0078 48.2042 57.1616C50.3273 53.4123 51.4947 48.9001 51.495 44.1885ZM34.3213 30.5403C34.6808 30.7614 34.9355 30.7272 35.2308 30.467C36.1831 29.6279 36.4363 29.3342 37.6355 28.5883C38.8437 27.8368 40.1604 27.2704 41.6664 26.9173C47.4152 25.5698 50.2882 28.1478 51.3396 27.8206C51.757 26.8891 50.8963 26.7755 50.0212 26.441C49.3497 26.1842 48.428 25.9216 47.644 25.7746C42.7933 24.8645 38.3653 26.296 34.8033 29.4245C34.4962 29.6941 34.1851 29.9456 34.3213 30.5403ZM43.2407 28.4999L43.2416 27.7669C42.0741 27.4508 39.5712 28.6047 38.7214 29.0613C37.2854 29.8331 36.3488 30.7301 35.3701 31.7199C34.56 32.5393 33.656 34.0034 33.0875 35.3337C32.6541 36.3478 31.8895 39.0744 32.1067 40.3012C32.1778 40.7021 32.6257 40.9667 32.9693 40.6298C33.4197 40.1879 32.4413 34.1685 38.8977 30.1576C39.5264 29.767 40.1699 29.4752 40.9075 29.2099C41.5081 28.9938 42.8298 28.7492 43.2407 28.4999ZM42.2855 42.9672C42.2855 46.2136 42.1115 48.7273 40.8244 51.5177C40.3292 52.5914 39.8048 53.418 39.1093 54.1809C38.2289 55.147 37.4003 55.3675 37.2894 55.7321C36.8253 57.2602 40.0496 56.009 41.8569 51.7346C43.1251 48.7357 43.3129 46.3472 43.3134 42.9672C43.3134 42.2084 43.4196 41.7549 42.5245 41.8416C42.2419 42.2615 42.2855 42.4038 42.2855 42.9672ZM44.4743 57.9312C45.1917 58.693 46.1679 56.6138 46.7055 55.6654C47.2652 54.6781 47.8028 53.3808 48.1671 52.2457C48.6313 50.7992 49.9979 45.1076 49.247 43.9215C48.2105 43.6846 48.4107 44.4349 48.3886 45.3073C48.3379 47.3304 47.9047 49.5626 47.3494 51.4217C46.8672 53.0359 46.0285 54.9414 45.1284 56.3289C44.8664 56.7328 44.1291 57.4311 44.4743 57.9312ZM44.4753 45.9985C44.1405 46.2252 43.9822 48.5221 43.5737 49.8919C42.7061 52.8016 41.3194 55.4314 38.7731 57.0043C37.5171 57.7803 38.429 59.5119 41.6414 55.8965C44.4863 52.6946 46.33 44.7419 44.4753 45.9985ZM38.9101 34.7877C38.1518 34.4519 38.0831 34.8395 37.7056 35.3699C35.1476 38.9627 36.678 42.6841 35.9884 46.4682C35.9001 46.9526 35.5544 47.925 35.7739 48.2166C36.6922 49.4357 37.0614 46.4051 37.1273 45.7817C37.4131 43.0753 36.8269 40.1126 37.6248 37.7422C38.214 35.9923 39.1543 35.6456 38.9101 34.7877ZM55.5523 44.799C55.5523 43.3844 54.7162 44.0365 54.676 44.086C54.4171 44.4054 54.5182 45.3991 54.4959 45.8503C54.3887 48.0035 54.0065 50.3573 53.4172 52.3975C53.1241 53.4123 52.7311 54.3572 52.4396 55.2976C52.2655 55.8588 52.6285 56.3258 53.1487 56.007C53.4226 55.8392 53.6368 55.0564 53.767 54.6874C54.8619 51.5853 55.5523 48.1699 55.5523 44.799ZM44.7087 39.7921C44.1091 40.046 44.3379 41.3076 44.3368 42.5602C44.3363 43.1936 44.0019 45.2449 45.0607 44.8785C45.633 44.6803 45.3712 42.7386 45.3732 42.0514C45.3751 41.4509 45.6295 39.4022 44.7087 39.7921ZM52.6193 28.1971C52.2738 29.1957 53.0299 29.0171 54.3098 30.3031C54.6125 30.6074 54.6856 30.768 55.2839 30.642C55.636 30.0449 55.2678 29.6845 54.4449 29.0497C53.9325 28.6546 53.4073 27.9201 52.6193 28.1971ZM41.7343 2.67744L41.7625 9.11557C41.7625 11.0007 41.5855 12.7251 43.726 12.7165C46.0413 12.7072 45.8973 11.2562 45.8973 9.11557L45.9239 2.67744C45.9244 1.98865 45.7965 1.42305 45.4188 0.986032C44.9812 0.479516 44.7723 0.329426 43.8436 0.328614C42.3153 0.327398 41.7335 1.24794 41.7343 2.67744ZM8.75106 4.7845L8.72494 10.6373C8.7244 11.9754 9.46222 12.7188 10.8058 12.7161C13.097 12.7115 12.8863 10.9986 12.8863 8.99848L12.9145 2.67744C12.9145 0.254516 11.4179 0.335782 10.3371 0.336729C8.28282 0.338622 8.75106 3.81365 8.75106 4.7845ZM21.1147 38.0281V45.0514C21.1147 45.9363 21.5732 45.7379 23.4584 45.7264L29.3414 45.6683C29.5187 44.2658 29.4076 39.6369 29.4058 37.911C29.4058 37.1583 28.2202 37.4425 27.5587 37.4429L21.6858 37.4292C21.1494 37.4563 21.1147 37.4818 21.1147 38.0281ZM8.78909 25.121C8.65024 26.2826 8.67257 31.9952 8.77474 33.2739C10.1847 33.4717 14.705 33.3483 16.4291 33.3464C16.9091 33.3464 17.0154 33.2403 17.0154 32.7607C17.0154 24.0352 17.55 25.0583 15.3749 25.0622L8.78909 25.121ZM8.79003 45.6607C9.52041 45.7955 16.5976 45.8028 16.8308 45.5895C17.1444 45.3082 17.022 45.2283 17.0159 44.2323L17.027 38.0144C16.9867 37.3016 16.7931 37.4138 16.0851 37.4311L9.8655 37.4388C8.27159 37.4192 8.72399 37.8456 8.7244 39.4327C8.72467 40.9846 8.5524 44.3748 8.79003 45.6607ZM21.2655 33.202C21.6532 33.5153 29.152 33.4018 29.3125 33.2288C29.5075 32.7707 29.4824 25.8363 29.3476 25.1205C28.6906 24.9969 21.4432 24.9758 21.2433 25.1645C21.005 25.3895 21.1189 31.1547 21.1091 32.2978C21.102 33.1167 21.0829 32.9871 21.2655 33.202Z" fill="#FEFEFE"/>
</g>
<defs>
<filter id="filter0_d" x="0.447021" y="0.328613" width="67.1919" height="67.7844" filterUnits="userSpaceOnUse" color-interpolation-filters="sRGB">
<feFlood flood-opacity="0" result="BackgroundImageFix"/>
<feColorMatrix in="SourceAlpha" type="matrix" values="0 0 0 0 0 0 0 0 0 0 0 0 0 0 0 0 0 0 127 0"/>
<feOffset dx="5" dy="5"/>
<feGaussianBlur stdDeviation="2.5"/>
<feColorMatrix type="matrix" values="0 0 0 0 0 0 0 0 0 0 0 0 0 0 0 0 0 0 0.25 0"/>
<feBlend mode="normal" in2="BackgroundImageFix" result="effect1_dropShadow"/>
<feBlend mode="normal" in="SourceGraphic" in2="effect1_dropShadow" result="shape"/>
</filter>
</defs>
</svg>
