<svg width="67" height="69" viewBox="0 0 67 69" fill="none" xmlns="http://www.w3.org/2000/svg">
<g filter="url(#filter0_d)">
<path fill-rule="evenodd" clip-rule="evenodd" d="M12.6397 3.67402C13.5381 3.50554 15.5871 3.62061 16.6086 3.62047C20.2238 3.62007 43.3664 3.45997 44.3877 3.68429L44.3714 20.6566C43.9177 20.416 43.5479 20.0993 43.0201 19.8024C40.5396 18.4076 40.2873 18.6832 37.4371 18.6832L19.4696 18.6831C17.9313 18.6831 16.7387 18.4812 15.4433 19.0728C13.6506 19.8914 13.6029 20.1544 12.6362 20.6589L12.6397 3.67402ZM38.6265 8.90754C39.8647 8.90754 40.8685 9.93031 40.8685 11.1923C40.8685 12.4542 39.8647 13.4771 38.6265 13.4771C37.3882 13.4771 36.3845 12.4542 36.3845 11.1923C36.3845 9.93031 37.3882 8.90754 38.6265 8.90754ZM28.5205 8.88333C29.7587 8.88333 30.7625 9.9061 30.7625 11.1681C30.7625 12.43 29.7587 13.4528 28.5205 13.4528C27.2823 13.4528 26.2786 12.43 26.2786 11.1681C26.2786 9.9061 27.2823 8.88333 28.5205 8.88333ZM18.3896 8.96149C19.6278 8.96149 20.6316 9.98439 20.6316 11.2462C20.6316 12.5082 19.6278 13.5311 18.3896 13.5311C17.1514 13.5311 16.1477 12.5082 16.1477 11.2462C16.1477 9.98439 17.1514 8.96149 18.3896 8.96149ZM26.108 48.9508C27.7289 49.6648 28.976 50.025 31.2277 48.7546C31.5251 48.4608 31.5117 48.166 31.1383 48.017C30.3423 47.7743 29.8525 48.7968 28.3941 48.7438C27.0026 48.6934 26.5447 47.6037 25.786 48.1371C25.6443 48.469 25.78 48.7341 26.108 48.9508ZM13.2905 30.7585C12.2699 29.9756 9.44697 30.0615 8.18651 30.4347C6.89993 30.8161 5.13821 32.0833 5.09585 33.32L4.91546 33.3829C3.55824 40.1399 5.28951 39.3481 5.92894 41.1854C6.34643 42.385 7.47711 43.6843 8.68534 44.1526C13.6024 46.0586 15.1844 40.8272 15.5235 40.4133C16.2047 39.5824 16.5765 39.3588 16.4936 37.7244C16.4424 36.1886 16.5131 34.5003 15.9045 33.1789C15.3532 31.9819 14.5783 31.2196 13.2905 30.7585ZM45.035 44.296C43.9808 43.967 42.9971 43.1745 42.4065 42.2455C42.125 41.8024 41.8042 40.8127 41.5465 40.4781C41.0697 39.8591 40.8321 39.9194 40.5961 38.9142C40.425 38.186 40.5361 37.1197 40.5718 36.3512C40.8441 30.5043 43.8257 31.0656 44.7619 30.3426C46.0836 30.1299 47.7074 29.9538 48.8908 30.4821C50.5137 30.85 51.6606 32.141 52.1543 33.6639C52.5874 35.0001 52.7392 38.0326 52.244 39.36C51.8048 40.5373 51.7314 39.5102 51.0239 41.3456C49.9618 44.101 46.8926 44.9917 45.1123 44.3436C45.0754 44.3204 45.1123 44.3436 45.035 44.296ZM7.33935 54.6706L16.5029 54.7072C16.5845 47.2006 18.2617 48.8036 20.4126 47.6674C20.4541 46.1846 19.4744 46.1848 18.2246 45.8177C17.2567 45.5334 16.0364 45.1052 15.1006 44.8999C14.8307 45.9753 13.4243 47.3633 12.146 47.7427C10.622 48.8564 6.54022 47.4181 5.87941 44.9C4.93603 45.1095 3.71901 45.5334 2.7491 45.8181C1.46942 46.1936 0.742161 46.1306 0.541738 47.4945C0.309783 49.0713 0.255514 51.2265 0.0975847 52.9214C-0.0970194 55.0098 -0.639825 54.86 7.33935 54.6706ZM21.9353 46.1943C22.4339 46.5018 22.7771 46.467 23.4757 46.2669C23.8289 46.2084 24.2373 46.1988 24.4703 46.0458L24.7781 46.0546L25.1896 45.9636L25.871 45.9045L25.3409 44.9131C25.2259 44.6642 25.1472 44.4613 24.9525 44.2441L24.9118 43.9903L24.6352 43.2891L24.6226 42.9824C24.3139 42.1533 24.4763 40.5906 24.531 39.6723C25.5534 39.4507 25.9499 39.2402 26.6521 38.7999C28.0111 40.7969 30.8952 40.9835 32.9448 41.1339C32.6827 44.1021 31.4294 45.1522 31.1436 45.9511C33.1646 46.0342 35.618 47.2879 34.9674 45.2279C34.0768 42.4075 35.9342 41.1477 34.5096 37.5681C32.4347 32.3554 25.2823 31.6032 22.5771 37.4053C21.896 38.8659 21.8847 39.9814 22.1374 41.6872C22.6982 45.4713 22.0108 44.6189 21.9353 46.1943ZM38.1994 49.9177C37.1119 49.3302 33.8282 48.7975 33.1634 48.3433C32.7494 48.5062 32.9345 48.4316 32.6341 48.7119L32.2148 49.0025C32.0614 49.3262 32.1824 49.1282 31.9573 49.3977C31.876 49.4947 31.7715 49.5843 31.6711 49.6823C30.0018 51.3147 31.0597 50.8663 29.5999 52.9848L28.5106 54.1075C27.8586 53.6113 27.4303 53.1095 26.983 52.2878C26.114 50.6916 26.6647 51.077 25.7966 50.1195L24.0474 48.3701C23.1528 48.4846 21.7636 48.9771 20.8198 49.2436C18.9547 49.7704 18.6188 49.6918 18.4053 50.8509C18.2058 51.9338 18.16 53.4688 18.0759 54.636C18.0051 55.6141 17.5096 57.495 18.1572 58.1299C18.9583 58.4017 28.5576 58.2317 30.2267 58.2198L37.0937 58.2282C39.6754 58.2124 39.2685 58.657 38.8601 53.6413C38.7644 52.4666 38.845 50.644 38.1994 49.9177ZM52.5428 45.2982L51.1396 44.885C50.7062 46.43 48.7219 47.9486 46.8152 48.0791C44.6778 48.2257 42.514 46.629 42.0815 45.2316C42.0567 45.2028 42.0247 45.1541 41.964 45.0877C41.8611 44.9752 41.8721 44.989 41.7858 44.9161C40.7682 45.2385 39.7542 45.525 38.7051 45.8407C37.2648 46.2741 36.7718 46.1194 36.5551 47.6659C39.2707 48.9203 40.2778 47.4474 40.5114 54.7096C42.3077 54.5266 51.8228 54.6764 55.0611 54.6799C57.4461 54.6823 57.2194 55.3646 56.5359 48.0268C56.3965 46.5315 56.3329 46.4687 55.0563 46.0648C54.6097 45.9236 52.7414 45.4495 52.5428 45.2982ZM9.78732 24.8589C10.1362 25.0225 10.1875 25.1379 10.4503 25.4255C11.0624 25.4253 11.5473 25.6165 12.1331 25.2571C12.6872 24.9176 13.4193 23.6406 15.5005 22.4513C16.9815 21.605 16.9391 21.7116 18.8974 21.7116C25.7125 21.712 32.748 21.61 39.5027 21.7072C41.3241 21.7334 43.3813 23.8414 44.5236 24.9334C45.3719 25.7443 46.6837 25.7166 47.2428 24.6551C47.5638 24.0456 47.4225 21.5597 47.4225 20.6974C47.4226 15.2114 47.4055 9.72545 47.4244 4.24097C47.4298 2.66774 47.1048 2.04359 46.2449 1.27326C45.329 0.45264 44.2175 0.577174 42.8159 0.579878L18.0964 0.578122C15.9658 0.587587 11.9651 0.113251 10.6542 1.37941C9.7267 2.27508 9.58961 2.81621 9.59462 4.46963L9.59475 22.9829C9.59177 23.9139 9.69895 24.1754 9.78732 24.8589Z" fill="#FEFEFE"/>
</g>
<defs>
<filter id="filter0_d" x="0.00976562" y="0.498779" width="66.9896" height="67.7844" filterUnits="userSpaceOnUse" color-interpolation-filters="sRGB">
<feFlood flood-opacity="0" result="BackgroundImageFix"/>
<feColorMatrix in="SourceAlpha" type="matrix" values="0 0 0 0 0 0 0 0 0 0 0 0 0 0 0 0 0 0 127 0"/>
<feOffset dx="5" dy="5"/>
<feGaussianBlur stdDeviation="2.5"/>
<feColorMatrix type="matrix" values="0 0 0 0 0 0 0 0 0 0 0 0 0 0 0 0 0 0 0.25 0"/>
<feBlend mode="normal" in2="BackgroundImageFix" result="effect1_dropShadow"/>
<feBlend mode="normal" in="SourceGraphic" in2="effect1_dropShadow" result="shape"/>
</filter>
</defs>
</svg>
